<?xml version="1.0" standalone="no"?>
<svg viewBox="0 0 200 200" xmlns="http://www.w3.org/2000/svg">
  <path fill="#3730A3" d="M15.1,-13.2C29.1,-18,56.7,-33.3,61.6,-32.9C66.5,-32.4,48.8,-16.2,43,-3.4C37.1,9.5,43.1,18.9,40.1,22.6C37,26.3,24.9,24.2,16.7,20.4C8.5,16.7,4.3,11.3,-2.1,15C-8.5,18.7,-17,31.5,-26.8,36.2C-36.6,40.8,-47.6,37.3,-49.9,29.9C-52.3,22.6,-46,11.3,-49.2,-1.9C-52.5,-15,-65.3,-30.1,-62.2,-36C-59,-42,-39.8,-38.8,-26.8,-34.6C-13.7,-30.4,-6.9,-25.1,-3.2,-19.6C0.5,-14.1,1,-8.4,15.1,-13.2Z" transform="translate(100 100)" />
</svg>
